<?xml version="1.0" encoding="iso-8859-1"?>
<!-- Uploaded to: SVG Repo, www.svgrepo.com, Generator: SVG Repo Mixer Tools -->
<svg fill="#000000" height="800px" width="800px" version="1.1" id="Layer_1" xmlns="http://www.w3.org/2000/svg" xmlns:xlink="http://www.w3.org/1999/xlink" 
	 viewBox="0 0 480 480" xml:space="preserve">
<g>
	<g>
		<g>
			<path d="M304.582,219.399c-9.799,0-17.772,7.959-17.772,17.742c0,9.84,7.973,17.846,17.772,17.846
				c9.841,0,17.847-8.006,17.847-17.846C322.429,227.358,314.423,219.399,304.582,219.399z"/>
			<path d="M186.091,237.141c0-9.783-7.986-17.742-17.801-17.742c-9.799,0-17.771,7.959-17.771,17.742
				c0,9.84,7.972,17.846,17.771,17.846C178.105,254.987,186.091,246.981,186.091,237.141z"/>
			<path d="M303.48,322.121c-27.316,9.367-46.097-8.423-54.333-18.865c16.424-4.367,27.835-18.811,27.835-36.977
				c0-5.523-4.477-10-10-10h-56.796c-5.523,0-10,4.477-10,10c0,17.288,10.324,31.206,25.461,36.275
				c-2.693,3.466-6.642,7.907-11.724,11.907c-13.176,10.37-27.681,12.947-43.112,7.659c-5.226-1.791-10.911,0.993-12.702,6.218
				c-1.79,5.225,0.994,10.912,6.218,12.702c7.365,2.523,14.669,3.777,21.829,3.777c14.179,0,27.785-4.92,40.136-14.641
				c4.25-3.345,7.876-6.904,10.861-10.227c2.984,3.323,6.609,6.883,10.859,10.227c12.351,9.722,25.951,14.641,40.129,14.641
				c7.156,0,14.462-1.254,21.824-3.777c5.224-1.791,8.008-7.478,6.217-12.703C314.393,323.114,308.706,320.329,303.48,322.121z
				 M238.563,284.626c-7.016-0.001-12.659-3.172-15.76-8.346h31.557C251.252,281.455,245.595,284.626,238.563,284.626z"/>
			<path d="M470,310.376v-0.001c5.522,0,10-4.478,10-10c0-5.523-4.478-10-10-10h-28.885c5.391-12.376,8.748-25.318,9.952-38.599
				l13.04-3.186c5.365-1.311,8.652-6.723,7.341-12.087c-1.31-5.364-6.719-8.655-12.087-7.341l-8.166,1.995
				c-2.006-25.304-11.983-49.846-29.172-71.497c-0.658-0.829-1.424-1.523-2.258-2.084l2.726-65.554
				c0.156-3.76-1.812-7.289-5.092-9.133c-3.281-1.842-7.319-1.689-10.448,0.398l-43.191,28.81
				c-15.578-8.335-32.396-14.999-50.059-19.778c-10.254-2.784-21.008-4.998-31.997-6.586c-10.795-1.52-36.581-2.674-38.89-2.674
				c-9.977,0-49.71,4.241-60.577,6.749c-22.355,5.099-43.286,12.945-62.211,23.322c-0.019,0.01-0.035,0.022-0.054,0.033
				L75.174,83.289c-3.131-2.088-7.17-2.241-10.45-0.397c-3.28,1.845-5.247,5.375-5.09,9.135l2.907,69.44
				c-0.559,0.476-1.078,1.014-1.537,1.626c-15.866,21.205-24.977,45.051-26.649,69.422l-13.717-3.352
				c-5.365-1.315-10.777,1.976-12.088,7.341c-1.311,5.364,1.976,10.776,7.341,12.087l18.804,4.595
				c1.31,12.786,4.622,25.251,9.824,37.19H10c-5.523,0-10,4.477-10,10c0,5.522,4.477,10,10,10h45.336
				c4.261,6.544,9.128,12.873,14.598,18.94l-54.01,4.245c-5.506,0.434-9.618,5.247-9.185,10.753
				c0.412,5.239,4.791,9.218,9.958,9.218c0.263,0,0.528-0.011,0.794-0.031l71.996-5.658c2.214,1.804,4.484,3.578,6.821,5.315
				c39.254,29.171,91.285,45.235,146.506,45.235c55.244,0,107.283-16.065,146.53-45.235c2.161-1.606,4.259-3.247,6.315-4.911
				l66.849,5.254c0.267,0.02,0.531,0.031,0.794,0.031c5.167,0,9.547-3.979,9.959-9.218c0.433-5.506-3.681-10.319-9.187-10.753
				l-48.743-3.831c5.62-6.194,10.616-12.66,14.974-19.354H470z M418.855,290.376h-85.133c-5.523,0-10,4.477-10,10
				c0,5.522,4.477,10,10,10h71.835c-4.908,6.075-10.432,11.854-16.516,17.287l-47.857-3.761c-5.504-0.42-10.319,3.681-10.753,9.187
				c-0.433,5.506,3.681,10.319,9.186,10.753l24.982,1.963c-32.898,20.316-75.411,32.588-121.785,32.588
				c-46.673,0-89.437-12.429-122.42-32.979l19.989-1.571c5.506-0.434,9.618-5.247,9.185-10.753s-5.246-9.613-10.753-9.187
				l-42.677,3.354c-5.907-5.315-11.281-10.956-16.066-16.881h66.205c5.523,0,10-4.478,10-10c0-5.523-4.477-10-10-10H66.775
				c-5.413-10.17-9.224-20.92-11.186-32.086l80.064,19.561c0.797,0.195,1.596,0.288,2.381,0.288c4.501,0,8.59-3.061,9.707-7.629
				c1.311-5.364-1.976-10.776-7.341-12.087l-86.278-21.079c0.471-13.955,3.904-27.806,10.092-40.998
				c1.099,4.366,5.049,7.55,9.686,7.55c0.141,0,0.284-0.003,0.426-0.009c5.518-0.231,9.804-4.892,9.573-10.409l-3.46-82.638
				l53.94,35.972c4.597,3.066,10.804,1.824,13.868-2.771c3.064-4.595,1.823-10.804-2.771-13.867l-6.475-4.317
				c14.778-7.134,30.773-12.689,47.708-16.552c9.298-2.146,47.658-6.243,56.093-6.243c2.174,0.014,26.822,1.171,36.076,2.474
				c10.154,1.467,20.107,3.515,29.589,6.089c12.596,3.409,24.709,7.848,36.17,13.229l-7.976,5.32
				c-4.595,3.064-5.835,9.273-2.77,13.868c3.065,4.596,9.274,5.835,13.868,2.771l53.931-35.974l-3.436,82.643
				c-0.229,5.518,4.058,10.177,9.576,10.406c0.142,0.006,0.281,0.009,0.422,0.009c5.331,0,9.761-4.208,9.984-9.585l0.166-4.006
				c7.867,14.522,12.321,29.981,13.061,45.674L339.6,258.423c-5.365,1.311-8.652,6.723-7.341,12.087
				c1.115,4.568,5.204,7.629,9.706,7.629c0.785,0,1.584-0.093,2.381-0.288l85.924-20.992
				C428.387,268.537,424.498,279.772,418.855,290.376z"/>
		</g>
	</g>
</g>
</svg>